<svg id="visual" viewBox="0 0 900 900" width="900" height="900" xmlns="http://www.w3.org/2000/svg" xmlns:xlink="http://www.w3.org/1999/xlink" version="1.1"><path d="M0 298L11.5 292C23 286 46 274 69 265C92 256 115 250 138.2 260.5C161.3 271 184.7 298 207.8 304C231 310 254 295 277 284.5C300 274 323 268 346 254.5C369 241 392 220 415.2 220C438.3 220 461.7 241 484.8 238C508 235 531 208 554 227.5C577 247 600 313 623 317.5C646 322 669 265 692.2 253C715.3 241 738.7 274 761.8 289C785 304 808 301 831 299.5C854 298 877 298 888.5 298L900 298L900 0L888.5 0C877 0 854 0 831 0C808 0 785 0 761.8 0C738.7 0 715.3 0 692.2 0C669 0 646 0 623 0C600 0 577 0 554 0C531 0 508 0 484.8 0C461.7 0 438.3 0 415.2 0C392 0 369 0 346 0C323 0 300 0 277 0C254 0 231 0 207.8 0C184.7 0 161.3 0 138.2 0C115 0 92 0 69 0C46 0 23 0 11.5 0L0 0Z" fill="#6198ff"></path><path d="M0 379L11.5 383.5C23 388 46 397 69 397C92 397 115 388 138.2 394C161.3 400 184.7 421 207.8 415C231 409 254 376 277 356.5C300 337 323 331 346 329.5C369 328 392 331 415.2 332.5C438.3 334 461.7 334 484.8 326.5C508 319 531 304 554 322C577 340 600 391 623 388C646 385 669 328 692.2 329.5C715.3 331 738.7 391 761.8 415C785 439 808 427 831 425.5C854 424 877 433 888.5 437.5L900 442L900 296L888.5 296C877 296 854 296 831 297.5C808 299 785 302 761.8 287C738.7 272 715.3 239 692.2 251C669 263 646 320 623 315.5C600 311 577 245 554 225.5C531 206 508 233 484.8 236C461.7 239 438.3 218 415.2 218C392 218 369 239 346 252.5C323 266 300 272 277 282.5C254 293 231 308 207.8 302C184.7 296 161.3 269 138.2 258.5C115 248 92 254 69 263C46 272 23 284 11.5 290L0 296Z" fill="#3c80ff"></path><path d="M0 532L11.5 542.5C23 553 46 574 69 589C92 604 115 613 138.2 610C161.3 607 184.7 592 207.8 589C231 586 254 595 277 593.5C300 592 323 580 346 581.5C369 583 392 598 415.2 596.5C438.3 595 461.7 577 484.8 577C508 577 531 595 554 601C577 607 600 601 623 605.5C646 610 669 625 692.2 622C715.3 619 738.7 598 761.8 593.5C785 589 808 601 831 619C854 637 877 661 888.5 673L900 685L900 440L888.5 435.5C877 431 854 422 831 423.5C808 425 785 437 761.8 413C738.7 389 715.3 329 692.2 327.5C669 326 646 383 623 386C600 389 577 338 554 320C531 302 508 317 484.8 324.5C461.7 332 438.3 332 415.2 330.5C392 329 369 326 346 327.5C323 329 300 335 277 354.5C254 374 231 407 207.8 413C184.7 419 161.3 398 138.2 392C115 386 92 395 69 395C46 395 23 386 11.5 381.5L0 377Z" fill="#0066ff"></path><path d="M0 748L11.5 757C23 766 46 784 69 788.5C92 793 115 784 138.2 776.5C161.3 769 184.7 763 207.8 758.5C231 754 254 751 277 755.5C300 760 323 772 346 778C369 784 392 784 415.2 779.5C438.3 775 461.7 766 484.8 757C508 748 531 739 554 734.5C577 730 600 730 623 736C646 742 669 754 692.2 758.5C715.3 763 738.7 760 761.8 770.5C785 781 808 805 831 812.5C854 820 877 811 888.5 806.5L900 802L900 683L888.5 671C877 659 854 635 831 617C808 599 785 587 761.8 591.5C738.7 596 715.3 617 692.2 620C669 623 646 608 623 603.5C600 599 577 605 554 599C531 593 508 575 484.8 575C461.7 575 438.3 593 415.2 594.5C392 596 369 581 346 579.5C323 578 300 590 277 591.5C254 593 231 584 207.8 587C184.7 590 161.3 605 138.2 608C115 611 92 602 69 587C46 572 23 551 11.5 540.5L0 530Z" fill="#0059dd"></path><path d="M0 901L11.5 901C23 901 46 901 69 901C92 901 115 901 138.2 901C161.3 901 184.7 901 207.8 901C231 901 254 901 277 901C300 901 323 901 346 901C369 901 392 901 415.2 901C438.3 901 461.7 901 484.8 901C508 901 531 901 554 901C577 901 600 901 623 901C646 901 669 901 692.2 901C715.3 901 738.7 901 761.8 901C785 901 808 901 831 901C854 901 877 901 888.5 901L900 901L900 800L888.5 804.5C877 809 854 818 831 810.5C808 803 785 779 761.8 768.5C738.7 758 715.3 761 692.2 756.5C669 752 646 740 623 734C600 728 577 728 554 732.5C531 737 508 746 484.8 755C461.7 764 438.3 773 415.2 777.5C392 782 369 782 346 776C323 770 300 758 277 753.5C254 749 231 752 207.8 756.5C184.7 761 161.3 767 138.2 774.5C115 782 92 791 69 786.5C46 782 23 764 11.5 755L0 746Z" fill="#004cbb"></path></svg>