<svg id="visual" viewBox="0 0 900 900" width="900" height="900" xmlns="http://www.w3.org/2000/svg" xmlns:xlink="http://www.w3.org/1999/xlink" version="1.1"><rect x="0" y="0" width="900" height="900" fill="#f2f1f3"></rect><defs><linearGradient id="grad1_0" x1="0%" y1="0%" x2="100%" y2="100%"><stop offset="30%" stop-color="#3c88e3" stop-opacity="1"></stop><stop offset="70%" stop-color="#3c88e3" stop-opacity="1"></stop></linearGradient></defs><defs><linearGradient id="grad1_1" x1="0%" y1="0%" x2="100%" y2="100%"><stop offset="30%" stop-color="#3c88e3" stop-opacity="1"></stop><stop offset="70%" stop-color="#9aa5e7" stop-opacity="1"></stop></linearGradient></defs><defs><linearGradient id="grad1_2" x1="0%" y1="0%" x2="100%" y2="100%"><stop offset="30%" stop-color="#cfc8eb" stop-opacity="1"></stop><stop offset="70%" stop-color="#9aa5e7" stop-opacity="1"></stop></linearGradient></defs><defs><linearGradient id="grad1_3" x1="0%" y1="0%" x2="100%" y2="100%"><stop offset="30%" stop-color="#cfc8eb" stop-opacity="1"></stop><stop offset="70%" stop-color="#f2f1f3" stop-opacity="1"></stop></linearGradient></defs><defs><linearGradient id="grad2_0" x1="0%" y1="0%" x2="100%" y2="100%"><stop offset="30%" stop-color="#3c88e3" stop-opacity="1"></stop><stop offset="70%" stop-color="#3c88e3" stop-opacity="1"></stop></linearGradient></defs><defs><linearGradient id="grad2_1" x1="0%" y1="0%" x2="100%" y2="100%"><stop offset="30%" stop-color="#9aa5e7" stop-opacity="1"></stop><stop offset="70%" stop-color="#3c88e3" stop-opacity="1"></stop></linearGradient></defs><defs><linearGradient id="grad2_2" x1="0%" y1="0%" x2="100%" y2="100%"><stop offset="30%" stop-color="#9aa5e7" stop-opacity="1"></stop><stop offset="70%" stop-color="#cfc8eb" stop-opacity="1"></stop></linearGradient></defs><defs><linearGradient id="grad2_3" x1="0%" y1="0%" x2="100%" y2="100%"><stop offset="30%" stop-color="#f2f1f3" stop-opacity="1"></stop><stop offset="70%" stop-color="#cfc8eb" stop-opacity="1"></stop></linearGradient></defs><g transform="translate(900, 0)"><path d="M0 477.3C-26.1 463 -52.2 448.7 -77.6 440.2C-103.1 431.7 -127.8 428.9 -155.6 427.6C-183.4 426.2 -214.1 426.3 -238.6 413.4C-263.2 400.4 -281.4 374.3 -288.6 344C-295.8 313.6 -291.9 279.1 -311.8 261.6C-331.6 244.1 -375.2 243.7 -390.6 225.5C-406 207.3 -393.3 171.3 -396.6 144.3C-399.8 117.3 -419.2 99.3 -435.3 76.8C-451.4 54.2 -464.4 27.1 -477.3 0L0 0Z" fill="#e2dcee"></path><path d="M0 358C-19.6 347.3 -39.1 336.6 -58.2 330.2C-77.3 323.8 -95.9 321.7 -116.7 320.7C-137.5 319.7 -160.6 319.8 -179 310C-197.4 300.3 -211.1 280.7 -216.5 258C-221.9 235.2 -219 209.3 -233.8 196.2C-248.7 183.1 -281.4 182.8 -292.9 169.1C-304.5 155.5 -294.9 128.5 -297.4 108.2C-299.9 88 -314.4 74.5 -326.5 57.6C-338.6 40.6 -348.3 20.3 -358 0L0 0Z" fill="#b7b6e9"></path><path d="M0 238.6C-13 231.5 -26.1 224.4 -38.8 220.1C-51.5 215.8 -63.9 214.4 -77.8 213.8C-91.7 213.1 -107.1 213.2 -119.3 206.7C-131.6 200.2 -140.7 187.1 -144.3 172C-147.9 156.8 -146 139.5 -155.9 130.8C-165.8 122.1 -187.6 121.9 -195.3 112.8C-203 103.6 -196.6 85.7 -198.3 72.2C-199.9 58.7 -209.6 49.7 -217.6 38.4C-225.7 27.1 -232.2 13.5 -238.6 0L0 0Z" fill="#7596e5"></path><path d="M0 119.3C-6.5 115.8 -13 112.2 -19.4 110.1C-25.8 107.9 -32 107.2 -38.9 106.9C-45.8 106.6 -53.5 106.6 -59.7 103.3C-65.8 100.1 -70.4 93.6 -72.2 86C-74 78.4 -73 69.8 -77.9 65.4C-82.9 61 -93.8 60.9 -97.6 56.4C-101.5 51.8 -98.3 42.8 -99.1 36.1C-100 29.3 -104.8 24.8 -108.8 19.2C-112.9 13.5 -116.1 6.8 -119.3 0L0 0Z" fill="#3c88e3"></path></g><g transform="translate(0, 900)"><path d="M0 -477.3C26.4 -469.2 52.7 -461 80.7 -457.9C108.8 -454.8 138.4 -456.8 160.7 -441.7C183.1 -426.5 198.2 -394.2 214 -370.7C229.8 -347.1 246.4 -332.2 266.8 -317.9C287.1 -303.6 311.1 -289.9 320.2 -268.7C329.3 -247.5 323.5 -218.7 351.6 -203C379.7 -187.3 441.6 -184.7 448.5 -163.2C455.4 -141.8 407.2 -101.4 402.8 -71C398.4 -40.7 437.9 -20.3 477.3 0L0 0Z" fill="#e2dcee"></path><path d="M0 -358C19.8 -351.9 39.6 -345.8 60.6 -343.5C81.6 -341.1 103.8 -342.6 120.6 -331.2C137.3 -319.9 148.6 -295.7 160.5 -278C172.4 -260.3 184.8 -249.1 200.1 -238.4C215.3 -227.7 233.3 -217.4 240.2 -201.5C247 -185.6 242.6 -164 263.7 -152.3C284.8 -140.5 331.2 -138.5 336.4 -122.4C341.5 -106.3 305.4 -76 302.1 -53.3C298.8 -30.5 328.4 -15.2 358 0L0 0Z" fill="#b7b6e9"></path><path d="M0 -238.6C13.2 -234.6 26.4 -230.5 40.4 -229C54.4 -227.4 69.2 -228.4 80.4 -220.8C91.6 -213.3 99.1 -197.1 107 -185.3C114.9 -173.5 123.2 -166.1 133.4 -159C143.5 -151.8 155.5 -145 160.1 -134.3C164.7 -123.7 161.8 -109.3 175.8 -101.5C189.8 -93.7 220.8 -92.4 224.3 -81.6C227.7 -70.9 203.6 -50.7 201.4 -35.5C199.2 -20.3 218.9 -10.2 238.6 0L0 0Z" fill="#7596e5"></path><path d="M0 -119.3C6.6 -117.3 13.2 -115.3 20.2 -114.5C27.2 -113.7 34.6 -114.2 40.2 -110.4C45.8 -106.6 49.5 -98.6 53.5 -92.7C57.5 -86.8 61.6 -83 66.7 -79.5C71.8 -75.9 77.8 -72.5 80.1 -67.2C82.3 -61.9 80.9 -54.7 87.9 -50.8C94.9 -46.8 110.4 -46.2 112.1 -40.8C113.8 -35.4 101.8 -25.3 100.7 -17.8C99.6 -10.2 109.5 -5.1 119.3 0L0 0Z" fill="#3c88e3"></path></g></svg>